<?xml version="1.0" encoding="utf-8"?>
<svg id="master-artboard" viewBox="0 0 1400 1100" version="1.1" xmlns="http://www.w3.org/2000/svg" x="0px" y="0px" enable-background="new 0 0 1400 1100" width="1400px" height="1100px" xmlns:xlink="http://www.w3.org/1999/xlink"><rect id="ee-background" x="0" y="0" width="1400" height="1100" style="fill: white; fill-opacity: 0; pointer-events: none;"/>
<defs>
		<path d="M 0 0 H 1400 V 1100 H 0 V 0 Z" id="SVGID_1_"/>
	</defs><clipPath id="SVGID_2_">
		<use overflow="visible" xlink:href="#SVGID_1_"/>
	</clipPath><path d="M 0 0 H 1400 V 1100 H 0 V 0 Z" fill="#EDF0AB" transform="matrix(1, 0, 0, 1, 1.7220544318535076, 303.0815685849779)" style="fill-opacity: 0;"/><radialGradient id="SVGID_3_" cx="541.5679" cy="136.4714" r="283.5258" gradientUnits="userSpaceOnUse">
				<stop offset="0.276" style="stop-color:#FFFFFF;stop-opacity:0.95"/>
				<stop offset="0.5967" style="stop-color:#FFFFFF;stop-opacity:0.6512"/>
				<stop offset="0.8273" style="stop-color:#FFFFFF;stop-opacity:0"/>
			</radialGradient><radialGradient id="SVGID_4_" cx="541.5679" cy="136.4714" r="192.2203" gradientUnits="userSpaceOnUse">
				<stop offset="0.276" style="stop-color:#FFFFFF;stop-opacity:0.95"/>
				<stop offset="0.5967" style="stop-color:#FFFFFF;stop-opacity:0.6512"/>
				<stop offset="0.8273" style="stop-color:#FFFFFF;stop-opacity:0"/>
			</radialGradient><path fill="#DBE9AE" d="M-4.9,274.9c14.9-29.7,29.9-59.4,44.8-89.2c0.9,15.4,4.5,30.7,10.6,44.9c3.1-12.1,6.2-24.2,9.3-36.3&#10;&#9;&#9;&#9;c7.4,6.6,12.5,15.8,14.1,25.6c8.4-20.6,18.1-40.7,28.9-60.2c11.8,29.2,20.3,59.7,25.3,90.8c5.3-19.2,14.4-37.3,26.7-53&#10;&#9;&#9;&#9;c1.7,22.5,3.4,44.9,5.2,67.4c9.6-22.9,23-44.2,39.5-62.8c4,31.3,5.3,62.9,4.1,94.4c4.5-12,13.1-22.3,24.1-28.9&#10;&#9;&#9;&#9;c-1.8,24.8-0.1,49.9,5.1,74.3c9.6-16.7,19.2-33.5,28.8-50.2c0.2,26.1,3.4,52.2,9.6,77.5c1.2,0.2,1.9,0.4,1-0.5&#10;&#9;&#9;&#9;c-0.9-0.8-0.4-2.3,0.1-3.4c7.7-15.6,17.4-30.2,28.7-43.5c2.1,14.2,5.1,28.3,9.1,42.1c-0.8-6.3,3.1-12.1,6.7-17.3&#10;&#9;&#9;&#9;c8.2-11.7,16.5-23.4,24.7-35c3.2,20.5,7.6,40.9,13.3,60.9c0.3,0.9,0.6,2,1.5,2.3c0.9,0.3,2.1-0.9,1.3-1.5&#10;&#9;&#9;&#9;c8.4-17.5,19.3-38.1,27.7-55.6c0.2,14.1,3.8,28.1,10.4,40.5c6.7-27.1,15.9-53.5,27.4-78.9c3.5,36.6,14.6,72.4,32.4,104.5&#10;&#9;&#9;&#9;c6.5-19.6,13-39.2,19.6-58.8c2.7,12.6,6.1,27.8,12.5,38.9c13.2-24.8,23.8-51,31.6-78c9.4,29.7,17.1,59.9,23,90.5&#10;&#9;&#9;&#9;c8-13.4,15.6-27.1,22.7-41.1c6.8,22,14.8,43.6,24,64.7c2-11.2,6.9-21.8,14.1-30.6c6.8,9.7,13.7,19.4,20.5,29.1&#10;&#9;&#9;&#9;c6.8-22.5,15.2-44.5,25.1-65.8c3.3,21.2,11.5,41.7,23.7,59.4c5.2-14.7,12-28.8,20.3-42c12.7,21.8,25.4,43.5,38,65.3&#10;&#9;&#9;&#9;c27.3,0.9,49.6,20.3,76.9,22.3c1.2,0.1,2.7,0.5,2.8,1.7c0.1,1.2-2.4,0.1-1.3-0.2c11.9-31.6,18.8-70,22.6-103.6&#10;&#9;&#9;&#9;c3,8.8,8.3,16.9,15.1,23.3c6-18.8,12.4-37.5,19.1-56c1,14.6,6.5,28.8,15.6,40.2c4.6-30,13.9-59.4,27.5-86.6&#10;&#9;&#9;&#9;c8.5,32.5,2.6,71.3,25.8,95.6c6.4-13.4,14.3-26.2,23.6-37.8c0.6,19.4,6.6,38.5,17,54.8c6.6-15.7,13.2-31.4,19.8-47.2&#10;&#9;&#9;&#9;c1.2,20.6,7.4,40.9,18,58.7c9.6-17.1,22.9-32.8,32.5-49.9c4.4,16.2,11.8,31.5,21.7,45.1c14-13.1,28-26.2,42-39.3&#10;&#9;&#9;&#9;c2.8,17.5,7,34.9,12.4,51.8c16.1-29.3,32.3-58.6,48.4-88c-2,31.7,3,63.8,14.6,93.4c5-26.3,15.1-51.6,29.6-74.1&#10;&#9;&#9;&#9;c1.8,29.2,9,58.1,21.2,84.7c4.7-14.4,12.4-27.9,22.4-39.2c3.5,18,12.1,34.9,24.6,48.3c6.8-16.2,17-31,29.8-43&#10;&#9;&#9;&#9;c0.5,28.8,16.9,56.8,41.8,71.4c-75.3,76-173.4,129-278.2,150.4c-28.8,5.9-58.3,9.4-87.5,6c-20.5-2.4-40.3-8.2-60.4-13&#10;&#9;&#9;&#9;c-48.5-11.7-98.1-18.1-147.6-24.4c-116.4-14.9-232.8-29.7-349.1-44.6c-8.8-1.1-18.4-2.1-25.8,2.8c-67.8-6.5-133.6,26.2-200.9,36.4&#10;&#9;&#9;&#9;c-41.4,6.3-83.7,6.5-125.2,0.7c-28.8-4-58.9-11.9-79.4-32.5c-16-16-24.5-38.3-27.7-60.7s-1.8-45.2-0.3-67.7&#10;&#9;&#9;&#9;c1.6-24.1,3.2-48.3,4.8-72.4C-21.9,304.8-13,291.2-4.9,274.9z" transform="matrix(1, 0, 0, 1, 1.7220544318535076, 303.0815685849779)" style="fill-opacity: 0.86; fill: rgb(217, 215, 210);"/><path fill="#BEDEAC" d="M506.8,690.5c115.2,1.5,230.4-1,345.3-7.4c50.1-2.8,100.2-6.4,150.3-5.1c120.4,3.2,238.1,34.4,357.6,49.1&#10;&#9;&#9;&#9;c6,0.7,12.6,1.3,17.4-2.4c4.5-3.4,6-9.4,6.9-14.9c3.6-22.4,2.6-45.2,2.8-67.9c0.7-89.3,20.1-177.3,39.5-264.4&#10;&#9;&#9;&#9;c-17.6,7.9-31.8,23-38.8,41c-20-24.3-34.2-53.3-41-84c-20.1,32.1-33.6,68.3-39.4,105.7c-3.9-9.9-7.9-19.7-11.8-29.6&#10;&#9;&#9;&#9;c-7.2,22.7-14.5,45.4-21.7,68.1c-8.8-17.2-17.6-34.4-26.4-51.5c-4.8,15.7-11.3,32-21.3,44.9c-7-34.3-14-68.6-20.9-102.9&#10;&#9;&#9;&#9;c-20.3,28.8-36.4,60.5-47.7,93.9c-9.2-16.9-17.2-34.4-23.9-52.5c-9.1,1-13.4,11.6-15.5,20.6c-4.4,18.4-7.8,37.1-10.2,55.9&#10;&#9;&#9;&#9;c-2.2-22.2-10-43.3-17.7-64.2c-7.7-20.9-15.3-41.8-23-62.6c-14.5,36-27,72.7-37.5,110.1c-2.4-22.8-8.9-45.1-18.9-65.7&#10;&#9;&#9;&#9;c-8.5,24.5-13.8,46-22.3,70.5c-14.4-38.5-25.9-78.2-34.4-118.4c-12.6,20.9-22.4,43.5-29.4,66.9c-8.1-31.3-16.2-62.6-24.2-93.9&#10;&#9;&#9;&#9;c-11.1,25.6-20,52.3-26.5,79.4c-3.1-23.7-31-39.6-30.8-63.5c-6.7,24.3-15.6,49.5-22.3,73.8c-11.2-21.3-21.3-43.1-30.2-65.5&#10;&#9;&#9;&#9;c-6.6-16.6-12.6-33.7-14-51.5c-6,30.1-12.1,60.3-18.1,90.4c-7.5-15-13.8-30.7-18.8-46.7c-14.8,28-23.5,59.2-25.3,90.9&#10;&#9;&#9;&#9;c-10-9-17.3-20.9-20.7-33.9c-3.5,21.3-7.5,42.4-14.1,63c-11.3-28.8-18.7-59.1-21.8-89.9c-9.7,22.8-18.8,45.9-27.3,69.2&#10;&#9;&#9;&#9;c-3.9-4.4-5.2-10.5-6.4-16.2c-1.7-8-3.3-16.1-5-24.1c-6.9,22.4-13.6,44.1-24.1,65c-7.5-18.4-13.2-37.6-17.2-57&#10;&#9;&#9;&#9;c-14,28-23.1,58.5-26.6,89.6c-5.6-17.8-11.2-35.6-16.8-53.4c-9.3,21.4-15.9,44-19.5,67.1c-7.7-17-14.2-34.6-19.4-52.6&#10;&#9;&#9;&#9;c-7.8,18.6-15.1,37.5-21.8,56.6c-11.5-33-20.7-66.8-27.8-101.1c-9.3,26.8-16.5,54.4-21.5,82.3c-9.7-19-17.5-38.9-23.3-59.4&#10;&#9;&#9;&#9;c-6.7,21.6-13.4,43.2-20.2,64.8c-6.4-46.1-8.3-92.7-5.7-139.2c-18.4,36-34.3,73.3-47.5,111.5c-9.9-21.4-15.4-44.8-16.2-68.3&#10;&#9;&#9;&#9;c-16.3,24.3-27.7,51.9-33.4,80.7c-9.8-28.5-19.7-56.9-29.5-85.4c-6.6,25.8-15.9,51.4-27.8,75.2c-11.4-38.6-18.3-78.4-20.7-118.6&#10;&#9;&#9;&#9;c-8,22-17.4,43.6-28.1,64.4c-15.3-42.5-24.4-87.4-26.8-132.5c-10.8,17-18.3,36.1-22,55.9c-12.1-9.6-15.5-26.2-18.1-41.4&#10;&#9;&#9;&#9;c-4.6-27.1-9.2-54.2-13.7-81.2C72.9,257.1,61,290.7,57,325.3c-9.2-30.5-18.4-60.9-27.6-91.4c-13.2,47-26.3,93.9-39.5,140.9&#10;&#9;&#9;&#9;c-5.4,19.2-5.5,38.6-4.7,58.6c0.8,19.2-2.8,38.3-5.6,57.4c-8.9,60.5-9.2,122.3-1.1,183c0.8,6,1.9,12.4,5.8,17&#10;&#9;&#9;&#9;c3.7,4.3,9.3,6.5,14.8,7.8c14.3,3.5,29.3,2.8,44,2.1c91.2-4.2,182.4-6.4,273.7-6.4c24.4,0,48.7,0.1,73.1,1.1&#10;&#9;&#9;&#9;c36.7,1.4,74,4.6,109.6-4.3C500.7,690.8,505.7,690.8,506.8,690.5z" transform="matrix(1, 0, 0, 1, 1.7220544318535076, 303.0815685849779)" style="fill: rgb(200, 198, 194);"/><path fill="#AECFA4" d="M620.6,817.1c11.2-5.2,26.1-3.3,37.9-2.8c20.8,0.9,41.6,3.4,62.2,6.1c18.8,2.5,37.2,6.9,56,10&#10;&#9;&#9;&#9;c16.6,2.8,33.6,3.5,50.4,4.8c25.4,1.9,50.8,1.5,76.2,1.5c27.2,0,54,0.8,81.1-2.1c26.5-2.8,52.1-5.7,78.8-5.4&#10;&#9;&#9;&#9;c21.9,0.2,44.2,1.2,66.1-0.2c23.2-1.5,46.1-4.6,69.4-4.5c21.7,0.1,43.3,1.2,65,1.4c10.2-0.5,20.1,0.9,29.8,4.2&#10;&#9;&#9;&#9;c10.8,4.2,21.9,7,33.4,8.5c16.1,0.9,31-6,46.8-6.5c7.5-0.2,11.9-0.5,16.9-6.6c2.5-3.1,4-5.9,5.3-9.6c5.1-14.3,3-31,3-45.9&#10;&#9;&#9;&#9;c0-7.9,0-15.7,0-23.6c0-9.6,1.4-18.9,1.6-28.5c0.2-8.6-0.2-17.2-0.1-25.8c0.1-8.1,1.5-16,1.6-24.1c0.1-6.4-1.4-11.5-1.7-17.7&#10;&#9;&#9;&#9;c-0.3-7.9-0.2-15.5-1.1-23.4c-1-8.6-0.1-17.3-0.2-25.9c-0.1-10.3-3.4-20.1-2.9-30.3c0.6-11.4,2.7-22.7,2.9-34.2&#10;&#9;&#9;&#9;c0.2-12.3-0.3-24.6-0.1-36.9c0.2-14.8,0.6-30.1,1.7-44.8c1.4-18.5,7.2-36.5,9.1-55c1.7-16.5,0.5-32.9,2-49.3&#10;&#9;&#9;&#9;c1.4-15.9,3.1-32.1,5.3-48c1.8-12.5,4.1-24.5,4.6-37.2c0.2-5.1,0.5-9.9,1.6-14.9c1,6.3-7.2,14-10,19.1c-2.9,5.3-5.5,11.2-8.1,16.7&#10;&#9;&#9;&#9;c-6.6,13.8-10.8,28.6-16.8,42.6c-2.3,5.5-5.4,9.9-8.7,14.9c-3.8,5.7-5.7,10.2-7.9,16.6c-1.7,5-3.9,9.8-5.6,14.7&#10;&#9;&#9;&#9;c-0.5,2.6-1.6,4.9-3.4,6.8c-2.9,3.1-8.6,5.8-13,5.3c-1.5-0.3-2.9-0.8-4.2-1.5c-5.4-0.9-8,2.4-11.3,6.4c-3.8,4.7-7.9,9.3-9.1,15.3&#10;&#9;&#9;&#9;c-1.6,8.2-2.1,15.4-5.6,23.3c-1.8,4.1-4.6,7.5-6.1,11.6c-1,3.7-1.9,7.3-2.7,11.1c-2.3,6.7-7.8,11.5-11.7,17.3&#10;&#9;&#9;&#9;c-2.2,3.4-4.2,6.9-5.9,10.6c-0.9,1.7-4.2,10.3-7,10.9c-2.2-0.1-4-1.1-5.4-2.8c-4-2.8-5-0.8-6,3.9c-2,9.7,0.1,20.5-0.2,30.3&#10;&#9;&#9;&#9;c-0.2,4.7-1.6,13.4-6.1,16.2c-5.2-3-5.6-14-6.4-19.1c-1.1-7.8-1.9-15.9-3.8-23.5c-1.2,1.6-0.9,7.7-1.7,10c-1.5,4.4-3,9-5.8,12.8&#10;&#9;&#9;&#9;c-2.3,3.1-4.5,5.1-5.9,8.8c-2,5.2-3.4,10.6-5,15.9c-3.3,11.1-9.1,21.4-12,32.6c-1,4-8.7,11.1-7.4,15.2c0.4,1.5,0.2,2.7-1.2,2.9&#10;&#9;&#9;&#9;c-0.6-1.5,0-2.6-0.2-4.1c-0.6-4.3-1.9-8.8-3.1-13c-2.7-9.6-3.1-18-3-28c0.1-4.5,0.5-8.8-0.5-13.2c-1-3.3-2.4-6.5-4.1-9.5&#10;&#9;&#9;&#9;c-2.6-6.4-1-13.4-1.2-20.1c-0.2-9.2-9.9-12.9-10.9-21.3c-0.4-3.3,0.3-6.5-0.2-9.9c-0.7-3.5-1.1-6.9-1.2-10.5&#10;&#9;&#9;&#9;c-0.4-13.9-0.2-28,0.1-41.9c0.4,2.8-2.9,6.1-4.1,8.2c-2.6,4.5-6.8,9.1-7.7,14.2c-1,5,0.2,10.2,0,15.3c-0.2,5.3-2.9,10.1-4.8,15&#10;&#9;&#9;&#9;c-1.1,2.8-2,5.7-2.7,8.7c-0.1,2.1-0.3,4.2-0.4,6.2c-1.2,4-4.5,7.1-6.3,10.8c-2.4,5-3,10.3-4.4,15.6c-0.5,2-0.6,3.6-2.2,4.4&#10;&#9;&#9;&#9;c-1.1-2.5-1.9-5-3.4-7.2c-1.1-1.1-2-2.2-2.7-3.6c-1.8-4.2-1.4-11.1-1.8-15.6c-0.7-9.7-3.5-18.9-2.9-28.8c-2.5,5.1-4.2,11-6.3,16.2&#10;&#9;&#9;&#9;c-3.3,8.5-5.8,17.3-9.2,25.7c-2.8,7-6.4,13.7-9.2,20.8c-6.1,15-11.8,30-17.4,45.2c-1.2,3.4-8.8,8.4-10.5,11.7&#10;&#9;&#9;&#9;c-2.4,4.8-4.1-1.9-4.5-3.3c-0.9-3.2-1.9-6.7-2.6-10c-1.3-5.9-1.4-12-3.3-17.8c-1.4-4.3-3.3-6.8-5.7-10.4&#10;&#9;&#9;&#9;c-5.2-7.9-4.5-12.8-4.8-21.5c-0.4-8.6-3.9-15.1-6.6-23c-1.8-5.3-0.4-10.5-0.9-15.9c-0.3-3.6-1.5-6.6-1.7-10.2&#10;&#9;&#9;&#9;c-0.2-4.1,0.5-8.1-0.1-12.2c-0.8-5.8-3.3-11.4-5.2-16.9c-3.3-9.7-2.1-20.2-2.1-30.4c0-9-0.2-18.1,0.1-27.1&#10;&#9;&#9;&#9;c-1.7,0.6-2.1,3.2-2.9,4.7c-2.1,3.6-5.1,6.1-6.5,10.1c-1.9,5.3-3.8,9.9-6.3,15c-3.4,6.8-4.9,14.4-8.2,21.3&#10;&#9;&#9;&#9;c-7.2,15.2-18.9,28.5-27.6,42.9c-3.7,6-6.7,12.5-10.5,18.3c-6.2,9.5-11.8,18.3-16.2,28.9c-3.3,8.2-5.4,16.3-6.9,24.9&#10;&#9;&#9;&#9;c-0.5,3-0.8,7.1-4.8,5.5c-3.8-1.6-4.2-8.6-4.8-11.8c-1-5.4-2.7-9.8-6-14.2c-3.9-5.2-6.4-11.1-8.7-17c-2.4-5.9-5.6-11.8-7.2-18&#10;&#9;&#9;&#9;c-2.1-8-1.9-16.6-1.7-24.8c0.8,5-3,9.3-4.9,13.5c-2.1,4.6-3.4,9.6-5.7,14.1c-4,8-4.9,16.6-8,24.9c-2.8,7.5-10.2,13.4-11.4,21.5&#10;&#9;&#9;&#9;c-0.4,2.7,0.6,4.8-0.4,7.4c-1.7,4.1-7,7.1-9.8,10.2c-2.6,2.8-4.4,7.9-7.7,9.8c-4.3-4.1-7.1-8.8-10.5-13.5&#10;&#9;&#9;&#9;c-2.3-3.1-7.3-6.6-8.5-10.2c0.3-0.2-3.8-3.4-3.5-3.6c-4.1-0.2-8.2-14.6-9.2-17.8c-2-6.7-0.9-11.3,0.6-17.9&#10;&#9;&#9;&#9;c1.2-5.4,2.1-10.1-0.5-15.2c-3.6-7.3-11.7-11-15.2-18.2c-2.1-4.4-0.9-9.1-1.5-13.7c-0.6-4-1.7-7.3-3.9-10.7&#10;&#9;&#9;&#9;c-1.1-1.6-2.1-3.1-3.2-4.6c-1.1-3.4,0.5-7.1,1-10.4c0.2-3.9,0.4-7.7,0.6-11.6c0.8-4.5,3-8.3,2.8-13&#10;&#9;&#9;&#9;c-10.6,10.1-17.4,23.2-21.5,37.2c-2,6.9-5.5,35.7-17.3,28.5c-6.9-4.2-7.1-11.6-8.9-18.7c-2.2-8.8-4.6-17.5-7.5-26&#10;&#9;&#9;&#9;c-2.6-7.6-6-15-7.9-22.8c-1.5-6.3-2.7-12.4-3-18.9c-0.3-5.3-2-10.9-1.4-16.2c-0.8,0.1-5.3,10.2-6.1,11.8c-2,4-4.5,8.2-6.1,12.4&#10;&#9;&#9;&#9;c-2.5,6.4-3.7,13.3-6,19.8c-1.7,4.9-4.6,7.9-7.5,12.1c-3.8,5.6-6.2,11.9-9.9,17.5c-5,7.5-9.3,14.5-12.4,23&#10;&#9;&#9;&#9;c-2.4,6.6-4.6,12.5-7.7,18.9c-3.4,6.9-5.3,13.6-7.8,20.8c-2,5.8-3.8,11.6-5.8,17.4c-0.5,1.6-1.1,3.1-1.7,4.6c-1.8,2.6-3,3.1-6,2.6&#10;&#9;&#9;&#9;c-3.8-0.6-7.3-3.7-10.2-6c-4.2-3.4-4.8-8.5-7.3-12.9c-2-3.7-5.4-5.9-7.7-9.3c-1.3-2.1-2.5-4.1-3.7-6.2c-1.3-2-2.2-4.4-5.3-2.6&#10;&#9;&#9;&#9;c-5,3-3.4,15.7-4.6,20.5c-4.8-2.4-9.1-8.3-11.1-13.1c-2.4-5.6-4.7-11.6-6.7-17.4c-2.9-8.1-4.6-16.5-7.2-24.6&#10;&#9;&#9;&#9;c-0.4-1.1-1.1-8.6-2.9-9.2c-1.1,2.2-0.5,8.6-0.7,10.6c-0.5,2.7-0.9,5.5-1.1,8.3c-1.2,7.6-5.4,15.8-8.4,22.9&#10;&#9;&#9;&#9;c-3.7,8.8-5.9,16-5.4,25.7c0.2,3.7,2.5,8.3,1.5,12c-1.5,5.8-7.8,9-9.4,15c-1.6,5.8-2.1,12.7-2.9,18.6c-1.1,7.3,0.2,15.3-2.6,22.1&#10;&#9;&#9;&#9;c-1.1,2.7-4.9,4.5-4.5,7.4c-2.1-0.3-2.5-5.5-2.9-6.9c-1.5-4.7-3-9.5-4.9-14.1c-3.1-7.2-4.2-13.7-5.9-21.3&#10;&#9;&#9;&#9;c-1.8-7.9-6.2-14-8.9-21.5c-1.2-3.5-1.5-7-2.9-10.5c-1.1-1.9-1.6-3.9-1.6-6c-0.4-6.2-1.4-12.7-3.2-18.7&#10;&#9;&#9;&#9;c-2.2-7.2-6.2-13.6-5.6-21.5c0.8-9.7,6.4-18.7,8.9-28c1.2-4.4,5.1-13.3,2.6-18c-2.1,0.8-4,5.1-5.2,7c-3.1,4.7-6.6,9-9.1,14.1&#10;&#9;&#9;&#9;c-2.2,4.3-4.8,8.2-6.6,12.7c-2.7,6.7-3.9,13.5-6.3,20.2c-2.9,8-9.6,14.1-12.9,21.9c-3.6,8.7-5.8,18.5-7.2,27.7&#10;&#9;&#9;&#9;c-0.4,2.8,0.6,7-3.3,5.7c-3.8-1.2-2.9-6-3-8.9c-0.3-8.6-5.4-19.9-10.3-26.5c-3.3-4.4-2.4-7.8-3.9-12.9c-1.7-6.1-5.6-11.1-6.7-17.5&#10;&#9;&#9;&#9;c-1.2-7.4,0.6-15-0.5-22.5c-0.5-3-0.9-6-1.4-9c-5.7,3.1-8.5,14.3-10.3,20.3c-1.4,4.8-1.2,9.8-3.1,14.5c-1.6,3.1-3.4,6.1-5.6,8.9&#10;&#9;&#9;&#9;c-3.6,6.6-4.2,14.6-6.8,21.6c-3.2,8.5-8.3,15.9-11.1,24.7c-4.9,15.1-7.4,30.6-10.7,46c-1.8,8.4-4.4,17.1-7.6,25.1&#10;&#9;&#9;&#9;c-1.7,4.2-4.5,8.2-7.2,2.1c-2-4.4-1.8-10.8-3.2-15.5c-2.4-7.9-7.5-14.1-11.8-21.1c-3.6-5.7-6.3-10.3-7.3-16.9&#10;&#9;&#9;&#9;c-1.4-9.8-8-16.3-11.2-25.5c-2.5-7.1-1.1-15.3-2.3-22.8c-1.4-8.6-4.6-15.7-7.3-23.8c-1.9-5.7-1.6-12.2-2.4-18.1&#10;&#9;&#9;&#9;c-0.7-4.5-1.6-8.9-2.7-13.2c-1.4-5.9-3.1-11.5-3.1-17.6c0.4-1.7,0.4-3.4-0.1-5c-6.9,5.4-12.5,14.4-16.2,22.4&#10;&#9;&#9;&#9;c-2.7,5.8-5.9,11.5-7.6,17.6c-1.8,6.5-2.7,12.5-5.3,18.7c-3.7,9.1-3.7,19.4-6.7,28.8c-3.3,10.1-5.4,20.7-10.8,29.9&#10;&#9;&#9;&#9;c-6.5,11.1-10.6,22.6-16,34.2c-1.7,3.5-10,11.9-9.2,16.1c-7.4-7.4-11.2-17.6-15-27.4c-2.2-5.9-5.7-10.4-8.8-15.8&#10;&#9;&#9;&#9;c-3.3-5.6-3.5-11.3-4.3-17.6c-0.8-6.3-2.7-12.4-5-18.4c-2.2-5.7-3.1-11.1-4.1-17.1c-1.7-11.3-4-23.5-3.3-34.9&#10;&#9;&#9;&#9;c-2.1,1.7-3.3,1.9-4.6,4c-2.9,4.7-4.2,11.3-7,16.3c-1.6,2.9-6.4,7.5-6.8,10.9c0.4,1.9,0.9,3.7,1.6,5.6c1.8,8.2-0.7,17.3-2.6,25.3&#10;&#9;&#9;&#9;c-2.2,9.2-4.3,17.1-4.5,26.6c-0.1,3.3-0.4,6.7-2.2,9.6c-1.2,1.7-2.5,3.3-4,4.7c-2.7,4.9-2.3,11-4.6,16.1&#10;&#9;&#9;&#9;c-1.9,4.2-10.2,11.8-10.2,16.6c0.2-3-4.4-5.3-5.8-7.7c-2.8-4.9-1.4-10.7-3.5-15.9c-3.1-7.5-7.7-15.9-8.8-23.9&#10;&#9;&#9;&#9;c-0.8-5.6-0.7-10.2-3-15.7c-1.7-4.2-2.6-8.7-4.4-12.9c-3.9-9.3-6.1-17.1-6-27.3c0.1-6.4,1.1-11.4-2.9-17&#10;&#9;&#9;&#9;c-2.7-3.7-6.1-6.5-10.2-8.5c-2.4-0.3-3.6-1.5-3.7-3.6c-0.7-4.9,2.6-9.9,1.7-15.2c-0.8-4.5-2.6-8.9-4.7-12.8&#10;&#9;&#9;&#9;c-3-5.7-4.3-8.8-4.2-15.2c0.1-5.4,0.5-10.5,1.2-15.8c0.9-7.6,1.4-15.3,3-22.8c0.5-2.4,1.9-5.1,1.6-7.6c-5.6,1.9-8.8,8.1-10.3,13.3&#10;&#9;&#9;&#9;c-2,6.4-7.4,11.3-10.9,17.1c-2.1,3.5-3,6-5.8,8.9c-2,2-4.4,4.1-5.9,6.6c-1,1.8-1.7,3.4-2.7,5.3c-1.6,3.2-4.9,5.9-6.1,9.3&#10;&#9;&#9;&#9;c-1.1,3.3-0.3,7.5-1.2,11c-1,4.4-2.7,8.6-3.9,12.9c-1.6,6-4.1,11.5-4.2,17.8c-0.1,3.2,0.1,6.4,0.2,9.6c0.2,5.5-1.5,6.3-5.1,10.1&#10;&#9;&#9;&#9;c-2.9,3.2-2.3,4.4-2.8,8.8c-0.7,6.2-4.1,11.8-4.3,17.9c-0.1,2.9,0.8,5.8-1.3,8.3c-4-0.2-3-5.6-3.4-8.2c-0.7-4.8-2.4-8.1-4.3-12.4&#10;&#9;&#9;&#9;c-3.8-8.7,0.7-18.6-1.9-27.4c-2-7-7.4-7.3-11.4-12.2c-3.9-4.8-1.6-15-1.6-20.6c0-7,1.1-15.1-1.2-21.8c-2.3-6.7-8.1-9.2-9.1-16.6&#10;&#9;&#9;&#9;c-1.5-11.6,0.5-22.5-4.9-33.6c-2.8-5.8-7.1-11.4-8.9-17.6c-1.8-6-0.4-12.3-2.8-18.1c-2.4-5.9-3.2-10.4-3.1-16.9&#10;&#9;&#9;&#9;c0.1-7.1-0.7-13.7-1.2-20.7c-0.9-12.7,3.6-26,1-38.8c-2.1,0.7-4.5,5.3-6.1,7c-2.6,2.8-4.6,3.6-5.5,7.8c-1,4.8,0.2,9.9-0.4,14.8&#10;&#9;&#9;&#9;c-0.8,6.4-3.1,12.7-5.4,18.7c-4.1,10.9-10.4,20.7-15.4,31.2c-4.8,10-6.9,20.1-9.8,30.6c-3.2,11.5-5.1,23.4-8,35.1&#10;&#9;&#9;&#9;c-1.7,6.8-2,12.9-1.8,19.8C8.8,441,8.8,445.1,7,450c-2.7,7.2-8.1,12.4-11.6,19.1c-2.5,4.7-3.6,10-5.4,15&#10;&#9;&#9;&#9;c-2.2,6.2-7.7,14.1-6.8,21.1c8.2,63.6,10.5,133.5-2.4,196.3c-4.5,22-9.7,47.6,4.9,64.7C-8,773.5,1.1,777.9,9.9,782&#10;&#9;&#9;&#9;c13.5,6.2,27,12.3,41.2,16.6c23.1,7,47.4,9.2,71.5,11.3c106,9.3,212,18.6,318,27.9c17.1,1.5,34.3,3,51.3,0.5c13.2-2,26-6.3,39.1-9&#10;&#9;&#9;&#9;C560,823.4,593.7,829.7,620.6,817.1z" transform="matrix(1, 0, 0, 1, 1.7220544318535076, 303.0815685849779)" style="fill: rgb(191, 190, 186);"/><path fill="#7AA981" d="M31.3,513.8c8.8,6.9,17.6,13.9,26.4,20.8c-4.9-1.1-9.8-2.1-14.7-3.2c7.8,7.7,15.6,15.5,23.4,23.2&#10;&#9;&#9;&#9;c-6.4-2.2-12.9-4.5-19.3-6.7c8.3,9,16.6,18,25,27c-4.6-1.7-9.3-3.4-13.9-5.1c5.9,6.1,11.8,12.1,17.7,18.2&#10;&#9;&#9;&#9;c-4.3-1.7-8.6-3.4-12.9-5.1c6,9,12,18,18.1,26.9c7.6,9.4,15.2,18.7,22.8,28.1c-1.4-2.2-2.8-4.4-4.2-6.7&#10;&#9;&#9;&#9;c18.6,11.4,28.7,33.6,29.9,55.4s-5.1,43.3-13.3,63.5c-10.1,25.2-24,50.2-46.5,65.3c-22.6,15.1-55.6,17.2-75.4-1.4&#10;&#9;&#9;&#9;c-17.9-16.9-19.9-44.3-20.8-68.9c-3.2-94.7-6.4-190.2,9.9-283.5c0.8-4.8,1.8-9.8,4.9-13.6s9-5.8,13-3c1.8,1.2,2.9,3.1,4,5&#10;&#9;&#9;&#9;c5.3,9,10.5,17.9,15.8,26.9c-4.2-2.3-8.5-4.6-12.7-6.9c4.7,5.6,9.4,11.2,14.1,16.9c-3.7-1.3-7.3-2.7-11-4c6.7,7,13.3,14,20,21&#10;&#9;&#9;&#9;c-5-2-9.9-4.1-14.9-6.1c10.4,6.8,20.8,13.7,31.2,20.5C42.4,516.8,36.8,515.3,31.3,513.8z" transform="matrix(1, 0, 0, 1, 1.7220544318535076, 303.0815685849779)" style="fill: rgb(177, 176, 172);"/><path fill="#7AA981" d="M234.9,728.6c2.4-16.9,4.7-33.8,7.1-50.6c-1.5,0.3-2.9,0.6-4.4,1c2.9-7,5.9-14.1,8.8-21.1&#10;&#9;&#9;&#9;c-0.9,2.5-4.6,3.2-6.4,1.2c3.7-5,7.3-10,11-15c-2.3,1-4.7,2-7,3c4.2-5.4,8.5-10.8,12.7-16.1c1.8-3.6,3.5-7.2,5.3-10.8&#10;&#9;&#9;&#9;c-0.4-5.9,2.9-11.9,8.1-14.7c-2.7,0.6-5.4,1.2-8.1,1.8c4.3-4.3,8.7-8.7,13-13c-2.7,0.3-5.3,0.7-8,1c6.7-5.7,13.3-11.3,20-17&#10;&#9;&#9;&#9;c-3,0.7-6,1.3-9,2c5.7-5.7,11.3-11.5,17-17.2c-3.7,1-7.3,2-11,3c4.3-5,8.7-10,13-15c-1.7,0.3-3.3,0.7-5,1c3.3-4.6,6.7-9.3,10-13.9&#10;&#9;&#9;&#9;c-2.8,0.6-5.5,1.1-8.3,1.7c6.2-6.5,12.4-13,18.6-19.5c4.9,5.8,11.3,10.5,16.2,16.3c-4.3-2.1-8.6-4.3-12.9-6.4&#10;&#9;&#9;&#9;c3.1,3.9,6.2,7.8,9.3,11.8c-2.3,0-4.6,0-7,0c5.5,1.9,10.1,6.4,12.1,11.9c-2.6-0.7-5.2-1.5-7.8-2.2c3.7,4,7.3,8,11,12&#10;&#9;&#9;&#9;c-3.8-0.9-7.5-1.8-11.3-2.7c5.7,5.3,11.3,10.7,17,16c6-4.7,11.1-9.5,17.1-14.2c-4.4,0.9-8.8,1.8-13.2,2.8c2.7-2.5,5.4-5,8.1-7.6&#10;&#9;&#9;&#9;c-1.9,0-3.9,0-5.8,0.1c5.8-4.9,11.6-9.8,17.4-14.8c-1,0.7-2,1.5-3,2.2c3.8-4.2,7.6-8.4,11.4-12.7c-2,3.1-3.9,6.1-5.9,9.2&#10;&#9;&#9;&#9;c3.3-1,6.7-2,10-3c-0.6,1.1-1.1,2.2-1.7,3.3c3.9,2.4,7.8,4.8,11.8,7.3c-3-0.2-6.1-0.5-9.1-0.7c3.7,3,7.3,6,11,9&#10;&#9;&#9;&#9;c-0.9,0.2-1.9,0.5-2.8,0.7c0.9,2.6,3,4.7,5.7,5.5c0.1,6.1,5.1,11.8,11.2,12.7c4-3.3,10-7.5,13.9-10.8c0.3,1.5,0.5,3.1,0.8,4.6&#10;&#9;&#9;&#9;c5-3.4,9.9-6.8,14.9-10.2c0.8,1.8,1.6,3.7,2.4,5.5c1.3,0,2.7,0,4,0c0.8-2.6,3.3-4.7,6-5c0,3.4,0,6.7,0.1,10.1&#10;&#9;&#9;&#9;c1.4-0.6,2.8-1.2,4.2-1.8c0.3,1,0.7,2.1,1,3.1c1.9-0.9,3.8-1.7,5.7-2.6c3.5-1.6,6.7-6.9,9-9.9c0.8,1.8,1.7,3.5,2.5,5.3&#10;&#9;&#9;&#9;c3-3.7,3.1-9.4,0.4-13.2c1.4,2.6,2.9,5.2,4.3,7.8c-1.7-6.3,1.2-13.6,6.7-17.1c-3.7,1-7.5,2-11.2,3c3.4-5.5,8.6-10,14.6-12.5&#10;&#9;&#9;&#9;c-1.2-2.6-5.2-3.2-7.1-1.1c4-3.4,7.9-6.7,11.9-10.1c-3,0.7-6,1.3-9,2c4-4,8.1-7.9,12.1-11.9c9.3,4,17.5,7.7,26.8,11.7&#10;&#9;&#9;&#9;c-5,0-10,0-15,0c4.3,3.7,8.7,7.3,13,11c-3.3,0-6.7,0-10,0c4,4.3,8,8.6,12,12.9c-2.2,0.5-4.4,1-6.6,1.5c4.4,4.9,8.8,9.8,13.2,14.7&#10;&#9;&#9;&#9;c-3.2,0.5-6.4,1-9.6,1.5c6.4,8,12.8,16.1,19.1,24.1c-2.4,0.3-4.7,0.6-7.1,0.9c4.4,6.6,8.9,13.2,13.3,19.8&#10;&#9;&#9;&#9;c0,13.8,5.8,27.6,15.7,37.2c-5.2,9.6-1.1,21.2,1.8,31.7c13.6,49.8-3.3,102.3-20.1,151.1c-5.4,15.8-11.5,32.4-24.5,42.8&#10;&#9;&#9;&#9;c-12.4,9.8-28.8,12.2-44.5,14.3c-26.4,3.5-52.8,7-79.2,10.6c-22.8,3-45.9,6.1-68.5,2.3c-36.9-6.1-70.2-31.1-86.3-64.9&#10;&#9;&#9;&#9;C215.7,801.7,229.6,765.6,234.9,728.6z" transform="matrix(1, 0, 0, 1, 1.7220544318535076, 303.0815685849779)" style="fill: rgb(177, 176, 172);"/><path fill="#7AA981" d="M1412.3,912.4c40.4-177.1-15.7-363.3,8.3-543.4c-8.1,19.2-16.2,38.3-24.3,57.5c-1.1-0.5-2.2-1-3.3-1.5&#10;&#9;&#9;&#9;c-0.4,6.1-0.9,12.1-1.3,18.2c-2.9-4.4-5.9-8.8-8.8-13.1c1.3,8.4,2.7,16.8,4,25.1c-3.3-2-6.7-4-10-6c2.7,6,5.4,11.9,8.1,17.9&#10;&#9;&#9;&#9;c-5.9-1.8-11.8-3.7-17.6-5.5c1.7,4.9,3.5,9.8,5.2,14.6c-3.9-0.7-7.9-1.3-11.8-2c4,4.3,8,8.6,12.1,12.9c-6.6,2.6-13.2,5.2-19.9,7.8&#10;&#9;&#9;&#9;c1.3,3.3,7.6,6.6,10.1,4c-6.7,6.3-13.3,12.7-20,19c5-1,10-2,15-3c-7,6-14,12-21,18c6.8-2.2,13.6-4.4,20.3-6.6&#10;&#9;&#9;&#9;c-6.3,5.7-12.6,11.5-18.8,17.2c4.2-0.1,8.4-0.2,12.6-0.3c-1.5,0.8-3.1,1.8-3.4,3.4s2.2,3.3,3.1,1.8c-7.4,6-14.7,12-22.1,18&#10;&#9;&#9;&#9;c6.8-0.2,13.6-0.4,20.4-0.6c-2.7,4.3-5.3,8.7-8,13c3.5-0.1,7.1-0.1,10.6-0.2c-7.5,5.8-15,11.6-22.5,17.4c5.9-0.5,11.7-1,17.6-1.6&#10;&#9;&#9;&#9;c-7.7,4.9-15.4,9.8-23.2,14.7c5.5-1.1,10.9-2.3,16.4-3.4c-4.7,5.6-9.4,11.2-14,16.8c5.7-1,11.3-2,17-3c-8.7,5.4-17.3,10.8-26,16.2&#10;&#9;&#9;&#9;c4-0.7,8.1-1.4,12.1-2c-7.5,6.4-15.1,12.8-22.6,19.2c4.8-0.4,9.7-0.9,14.5-1.3c-8.7,5.7-17.3,11.4-26,17.1&#10;&#9;&#9;&#9;c6.4-0.8,12.8-1.7,19.2-2.5c-9.7,4-19.4,7.9-29.1,11.9c3.1,0.4,6.1,0.8,9.2,1.2c-10.7,2.2-21.4,4.5-32,6.7&#10;&#9;&#9;&#9;c4.6,1.2,9.2,2.4,13.8,3.7c-8.5,1.5-16.9,2.9-25.4,4.4c5.1,0.5,10.2,1.1,15.3,1.6c-4.7,2.6-9.3,5.2-14,7.8c2.7,0,5.3,0,8,0&#10;&#9;&#9;&#9;c-8.7,3.7-17.4,7.4-26,11.1c2.3-1.3,4.6-2.7,6.8-4c-5.8-1.5-12.2-2.8-18-4.2c-3-8.8-11.8-15.4-21.2-15.6c1.8-4.2,6.1-7.3,10.7-7.6&#10;&#9;&#9;&#9;c-10.3-5.1-20.7-10.1-31-15.2c5.9-0.5,11.8-1,17.7-1.5c-8.7-3.2-16-10-19.7-18.6c4.1-0.3,8.3-0.6,12.4-0.9&#10;&#9;&#9;&#9;c-6.3-4-12.6-8-18.9-11.9c3.4-1.4,6.9-2.7,10.3-4.1c-5.4-3.5-10.8-7-16.2-10.6c3.3-0.7,6.7-1.4,10-2c-3.3-3.9-6.6-7.9-10-11.8&#10;&#9;&#9;&#9;c5.3,1.3,10.7,2.6,16,4c-9.7-3.5-17.3-12.2-19.6-22.2c-2.6,3-5.2,5.9-7.8,8.9c-3.9,4.1-7.8,8.3-11.7,12.4c3.3-1.4,6.5-2.8,9.8-4.2&#10;&#9;&#9;&#9;c-6.5,9.4-17.4,15.5-28.8,16.2c6.2,0.1,12.4,0.2,18.7,0.3c-10.8,5.8-21.5,11.7-32.3,17.5c3.5-0.6,7.1-1.3,10.6-1.9&#10;&#9;&#9;&#9;c-7,4.6-14,9.2-21,13.9c4.3,0,8.7-0.1,13-0.1c-4.7,3.7-9.3,7.4-14,11.2c4,0,8,0,12,0c-5,4.6-9.9,9.3-14.9,13.9&#10;&#9;&#9;&#9;c3.7,1.6,7.4,3.3,11,4.9c-7.4-0.6-14.8-1.2-22.2-1.9c2.7-2.1,5.4-4.1,8.1-6.2c-7.7-0.8-20,2.6-26.8-1.1&#10;&#9;&#9;&#9;c-9.1-5.1-12.1-18.7-5.9-27.2c-5.9-3.8-11.8-7.6-17.8-11.4c5-1,10-2.1,15-3.1c-6.7-4.5-13.3-8.9-20-13.4c4.4-0.7,8.7-1.5,13.1-2.2&#10;&#9;&#9;&#9;c-10.1-8.3-20.2-16.6-30.2-25c3.3-0.4,6.6-0.8,9.9-1.2c-5.1-5.1-10.1-10.3-15.2-15.4c6,0,11.9,0,17.9,0&#10;&#9;&#9;&#9;c-8.5-5.3-16.9-10.5-25.4-15.8c3.2-2.6,6.4-5.2,9.6-7.8c-6.1-0.1-12.2-0.2-18.3-0.4c6.7-5,13.3-10,20-15&#10;&#9;&#9;&#9;c-4.6,0.1-9.3,0.2-13.9,0.2c8.4-3.8,16.7-7.5,25.1-11.3c-10.4-1-20.8-2.1-31.2-3.1c5.3-2.9,10.7-5.9,16-8.8&#10;&#9;&#9;&#9;c-8.3-1.3-16.7-2.7-25-4c4.6-2.5,9.2-5,13.8-7.5c-6.7-2-13.3-4.1-20-6.1c5.4-2.8,10.7-5.6,16.1-8.4c-6.3-1.7-12.7-3.3-19-5&#10;&#9;&#9;&#9;c6.3-2,12.7-4,19-6c-6.7-2.3-13.3-4.7-20-7c5-2.8,10-5.6,15-8.3c-6-0.7-12-1.4-18-2c3.3-4.2,6.6-8.4,10-12.6&#10;&#9;&#9;&#9;c-3.8,0.9-7.5,1.9-11.3,2.8c2.6-4.7,5.3-9.4,7.9-14.1c-3.5,1.7-7.1,3.4-10.6,5.1c3.2-14.4,6.5-28.8,9.7-43.1&#10;&#9;&#9;&#9;c-4.4,8-8.9,15.9-13.3,23.9c0.6-3.2,1.2-6.3,1.7-9.5c-2.7,6.3-5.4,12.6-8.1,19c-0.3-2.3-0.6-4.7-1-7c-1.1,6.7-2.1,13.4-3.2,20.1&#10;&#9;&#9;&#9;c-2-2.5-4-5-6-7.6c2.8,6.3,5.6,12.5,8.4,18.8c-2.4-1.8-4.9-3.5-7.3-5.3c-0.4,5.7-0.8,11.5-1.3,17.2c-4.3-5.6-8.7-11.2-13-16.9&#10;&#9;&#9;&#9;c-1.5,7.1,0.9,14.8,6.2,19.8c-5.4-3.3-10.7-6.6-16.1-10c5.1,7,10.1,14.1,15.2,21.1c-2.6,2.6-1.9,7.6,1.2,9.4&#10;&#9;&#9;&#9;c-3.8-0.1-7.6-0.3-11.4-0.4c4,2.6,8,5.3,12.1,7.9c-5-0.3-9.9-0.7-14.9-1c9.1,1.6,17.5,6.5,23.5,13.5c-4.8,1.8-9.7,3.5-14.5,5.3&#10;&#9;&#9;&#9;c-5.6,3.7-11.1,7.3-16.7,11c4.9-0.6,9.8-1.3,14.7-1.9c-8,5-16,10-24,15c4.3-1,8.7-2,13-3c-7.3,5-14.7,10-22,15&#10;&#9;&#9;&#9;c3.7,0.3,7.3,0.7,11,1c-3.3,3.6-6.7,7.2-10,10.9c3.4,0.4,6.9,0.9,10.3,1.3c-5.4,4-10.7,8.1-16.1,12.1c4,0,8-0.1,11.9-0.1&#10;&#9;&#9;&#9;c-4.7,4.3-9.3,8.7-14,13c4.3-0.3,8.7-0.6,13-0.9c-6.7,4.9-13.4,9.9-20.1,14.8c6.9-1.4,13.8-2.9,20.8-4.3&#10;&#9;&#9;&#9;c-9,6.6-18.1,13.3-27.1,19.9c6.7-2.2,13.5-4.4,20.2-6.7c-6.3,6-12.7,12-19,18c5-2.7,10-5.3,15-8c-5.3,6-10.7,12-16,18&#10;&#9;&#9;&#9;c4.7-2,9.3-4,14-6c-5.4,6.2-10.7,12.5-16.1,18.7c4.4-1.6,8.7-3.3,13.1-4.9c-6.6,5-13.3,10.1-19.9,15.1c3-0.3,6-0.7,9-1&#10;&#9;&#9;&#9;c-4,5.4-10.8,9.5-11.8,16.1c-0.3,1.8-0.5,3.7-0.8,5.5c-4.8-3.2-9.5-6.4-14.3-9.7c3-0.1,6.1-0.1,9.1-0.2c-4.7-2.9-9.4-5.9-14.1-8.8&#10;&#9;&#9;&#9;c3.3-2.9,6.6-5.9,9.9-8.8c-5.1,0.3-10.1,0.5-15.2,0.8c4.7-3.3,9.4-6.6,14.2-10c-8.7-2.8-17.5-5.6-26.2-8.4&#10;&#9;&#9;&#9;c7.3-0.6,14.6-1.2,21.8-1.7c-8.3-2.9-16.6-5.8-25-8.7c4.8,0,9.6,0,14.3,0c-8-6.7-16-13.3-24-20c5,0.3,10.1,0.6,15.1,0.9&#10;&#9;&#9;&#9;c-6.7-5.3-13.3-10.6-20-15.9c2.6-0.3,5.3-0.6,7.9-0.9c-4.7-4.4-9.3-8.8-14-13.2c4.7,1.7,9.3,3.3,14,5&#10;&#9;&#9;&#9;c-6.2-6.8-12.4-13.6-18.5-20.4c-2.5,4.4-5,8.9-7.5,13.3c2-1,4-2,6-3c-6,4.7-12,9.4-17.9,14.1c3.7-0.3,7.7,1.7,11.3,1.4&#10;&#9;&#9;&#9;c-3.4,2.9-6.8,5.8-10.2,8.7c2.3-0.4,4.6-0.7,6.9-1.1c-5.7,6.7-11.3,13.3-17,20c4.3-1.3,8.7-2.7,13-4c-6,4.8-11.9,9.6-17.9,14.4&#10;&#9;&#9;&#9;c6-2.1,12-4.1,17.9-6.2c-5.7,6.3-11.4,12.5-17.1,18.8c5.3-1.6,11.6,1.2,14.1,6.1c-3.8-3.3-7.5-6.7-11.3-10&#10;&#9;&#9;&#9;c0.7,6.3,1.4,12.5,2.2,18.8c-2.5-1.6-5-3.2-7.5-4.8c-9.5-6.7-19-13.4-28.5-20.1c4.2-0.5,8.3-1,12.5-1.5&#10;&#9;&#9;&#9;c-5.3-6.5-10.6-12.9-15.9-19.4c6.4,0.5,12.9,0.9,19.3,1.4c-8.2-6.1-16.3-12.1-24.5-18.2c6.3-1.6,12.5-3.1,18.8-4.7&#10;&#9;&#9;&#9;c-4.7-4.6-11.7-6.8-18.2-5.7c6-4.1,12-8.2,18-12.2c-5.7,0.3-11.3,0.6-17,0.8c3-4.6,5.9-9.2,8.9-13.9c-4.7,2.6-9.4,5.3-14.1,7.9&#10;&#9;&#9;&#9;c0.3-5.2,0.6-10.5,1-15.7c-0.6,8-6.2,15.4-13.7,18.2c2-5.7,4-11.4,5.9-17.2c-4.3,1.3-8.7,2.7-13,4c8.3-7.3,16.7-14.6,25-21.9&#10;&#9;&#9;&#9;c-4.3,0.7-8.7,1.4-13,2.1c3.3-4.7,6.6-9.5,10-14.2c-6.7,1.3-13.3,2.7-20,4c4.3-4.7,8.7-9.3,13-14c-5.6,0.7-11.2,1.4-16.8,2.2&#10;&#9;&#9;&#9;c3.4-3.6,6.7-7.3,10.1-10.9c-4.1-0.7-8.2-1.5-12.2-2.2c3.3-4.3,6.7-8.7,10-13c-5,0.3-10,0.7-15,1c4-5.3,8-10.7,12-16&#10;&#9;&#9;&#9;c-3.7,1-7.3,2-11,3c3.7-5.6,7.3-11.3,11-16.9c-3,0.7-6,1.4-9,2.1c3.3-5.4,6.6-10.8,9.9-16.2c-3.5,1.7-7,3.4-10.5,5.1&#10;&#9;&#9;&#9;c0.5-4.5,1.1-9,1.6-13.5c-2.3,4.4-4.6,8.9-6.9,13.3c-1.4-9.9-2.4-18.9-3.8-28.8c-1.8,8.3-3.5,16.7-5.3,25c-2-2.7-4-5.4-6.1-8.1&#10;&#9;&#9;&#9;c0.7,4.3,1.3,8.7,2,13c-2.7-2.3-5.3-4.7-8-7c2.3,4.3,4.7,8.6,7,12.9c-2.7,0.3-5.3,0.6-8,1c3.3,1.7,6.7,3.4,10,5.1&#10;&#9;&#9;&#9;c-3.7,3.3-7.3,6.7-11,10c3-0.7,6-1.3,9-2c-5,4.3-10,8.7-15,13c3.3-0.7,6.7-1.3,10-2c-5,4.7-10,9.3-15,14c2-1.9,5.9-0.7,6.5,2&#10;&#9;&#9;&#9;c-3.5,1.7-6.9,3.5-10.4,5.2c5.6-0.8,11.2-1.5,16.9-2.3c-4,2.3-8,4.7-12,7c2.6,0.4,5.1,0.9,7.7,1.3c-1,5-5.3,9.2-10.4,10&#10;&#9;&#9;&#9;c-5,0.8-10.5-1.9-12.9-6.3c0.4,3.3,0.8,6.7,1.3,10c-4.2-1.7-8.5-3.3-12.7-5c1.9,4.4,3.9,8.7,5.8,13.1c-2.1-1.2-4.3-2.3-6.4-3.5&#10;&#9;&#9;&#9;c6.8,6.9,13.6,13.8,20.4,20.6c-5.6-0.1-11.1-0.2-16.7-0.3c4.7,1.3,9.3,2.7,14,4c-6.7,3.3-13.3,6.7-20,10c4.6-0.1,9.1-0.2,13.7-0.3&#10;&#9;&#9;&#9;c-6.3,6.9-12.7,13.8-19,20.7c4.9-0.8,9.7-1.6,14.6-2.5c-6.7,7.7-13.4,15.4-20.1,23.1c5.3-0.4,10.6-0.7,15.9-1.1&#10;&#9;&#9;&#9;c-9,7.7-18,15.3-27,23c3.7,0,7.3,0,11,0c-6,7.7-12,15.4-18,23.1c4-1.6,8-3.3,12-4.9c-6,7.6-12,15.2-18.1,22.8&#10;&#9;&#9;&#9;c3.2-0.5,6.5-1,9.7-1.5c-5.4,7.3-10.8,14.5-16.2,21.8c1.7-0.6,3.4-1.2,5.1-1.8c-6.1,6.6-12.2,13.1-18.3,19.7&#10;&#9;&#9;&#9;c2.9-0.4,5.9-0.9,8.8-1.3c-4.3,6.3-8.7,12.7-13,19c2.7-1,5.4-1.9,8.2-2.9c-5.2,6.6-6.9,15.7-4.5,23.7c-2.6,11-2.3,22.6,0.9,33.5&#10;&#9;&#9;&#9;c1.5,19.7,4,39.6,11.1,58c11.4,29.7,34.6,54.7,63.5,68.3c28.8,13.5,62.9,15.4,93.1,5.2c112.8-38.3,239,25,357.5,37.8&#10;&#9;&#9;&#9;c51.1,5.5,102.4,11.1,153.7,8.4s103-13.9,147.3-40C1408.9,911.2,1414.2,912.2,1412.3,912.4z" transform="matrix(1, 0, 0, 1, 1.7220544318535076, 303.0815685849779)" style="fill: rgb(177, 176, 172);"/><path fill="#4A7C65" d="M1076.7,1118.8c-0.4,3.5-0.9,7-1.3,10.5c1.7-23.4,3.4-46.9,5.1-70.3c-8.4,9.7-16.8,19.5-25.3,29.2&#10;&#9;&#9;&#9;c5.6-17.6,11.2-35.1,16.9-52.7c-7.5,7.1-15.1,14.2-22.6,21.4c13.1-22.7,26.2-45.3,39.3-68c-9.5,3.5-19,7-28.5,10.4&#10;&#9;&#9;&#9;c12.7-18.6,25.4-37.2,38.1-55.8c-9.4,6.2-18.9,12.4-28.3,18.6c11.6-13.8,23.2-27.7,34.8-41.5c-7.5,3.2-15.1,6.3-22.6,9.5&#10;&#9;&#9;&#9;c9.3-12.7,18.6-25.3,27.9-38c-12,6.4-23.9,12.8-35.9,19.2c29.1-29.9,58.3-59.8,87.4-89.7c-15,7.1-29.9,14.1-44.9,21.2&#10;&#9;&#9;&#9;c15.6-16.6,31.2-33.2,46.8-49.7c-11.1,5-22.2,10-33.3,15c15.2-13.7,30.5-27.4,45.7-41.1c-11.2,4.4-22.4,8.9-33.6,13.3&#10;&#9;&#9;&#9;c13.5-10.6,27-21.2,40.4-31.8c-14.1-3.6-30.1,1.6-39.4,12.7c19.9-19.4,39.7-38.8,59.6-58.2c16.4,18.1,35.1,34,51.5,52.1&#10;&#9;&#9;&#9;c-11.1-4.5-22.2-9.1-33.4-13.6c6.7,9.8,13.4,19.5,20.2,29.3c-5.5-3.3-11.1-6.7-16.6-10c9.8,12.5,19.7,25,29.5,37.5&#10;&#9;&#9;&#9;c-9.8-4.1-19.5-8.3-29.3-12.4c15.8,15.9,31.6,31.8,47.4,47.7c-8.9-5.3-17.9-10.7-26.8-16c10.3,14.3,20.5,28.6,30.8,42.9&#10;&#9;&#9;&#9;c-10.8-6.6-21.6-13.2-32.4-19.8c21,24.5,42.1,49.1,63.1,73.6c-15.4-9.1-30.7-18.2-46.1-27.3c19.6,23.2,39.1,46.4,58.7,69.6&#10;&#9;&#9;&#9;c-15.4-8.3-30.7-16.7-46.1-25c12.6,15.1,25.1,30.2,37.7,45.3c-7.8-6.4-15.6-12.7-23.4-19.1c9.2,17.6,18.4,35.1,27.6,52.7&#10;&#9;&#9;&#9;c-10.8-8.4-21.6-16.9-32.4-25.3c8.5,20.1,17,40.2,25.4,60.3c-8.2-8.4-16.3-16.9-24.5-25.3c6,19.1,11.9,38.3,17.9,57.4&#10;&#9;&#9;&#9;c-4.3-7.1-8.7-14.3-13-21.4c0.7,16.9,1.5,33.9,2.2,50.8c-2.5-7.1-4.9-14.1-7.4-21.2c-4.7,16.6-9.3,33.2-14,49.8&#10;&#9;&#9;&#9;c-1.8-10-3.6-19.9-5.4-29.9c-4.8,7.3-9.7,14.5-14.5,21.8c-16.4-1-32.9-1.1-49.4-1.3C1159.9,1125.6,1117,1119.2,1076.7,1118.8z" transform="matrix(1, 0, 0, 1, 1.7220544318535076, 303.0815685849779)" style="fill: rgb(157, 156, 153);"/><path fill="#4A7C65" d="M358.3,1120.7c-0.4,3.1-0.8,6.2-1.2,9.3c1.5-20.8,3-41.6,4.5-62.4c-7.5,8.6-15,17.3-22.4,25.9&#10;&#9;&#9;&#9;c5-15.6,10-31.2,15-46.8c-6.7,6.3-13.4,12.6-20,19c11.6-20.1,23.3-40.2,34.9-60.4c-8.4,3.1-16.9,6.2-25.3,9.3&#10;&#9;&#9;&#9;c11.3-16.5,22.5-33,33.8-49.6c-8.4,5.5-16.8,11-25.2,16.5c10.3-12.3,20.6-24.6,30.9-36.8c-6.7,2.8-13.4,5.6-20.1,8.4&#10;&#9;&#9;&#9;c8.3-11.2,16.5-22.5,24.8-33.7c-10.6,5.7-21.2,11.4-31.8,17c25.9-26.5,51.7-53.1,77.6-79.6c-13.3,6.3-26.5,12.5-39.8,18.8&#10;&#9;&#9;&#9;c13.8-14.7,27.7-29.4,41.5-44.1c-9.8,4.4-19.7,8.9-29.5,13.3c13.5-12.2,27.1-24.3,40.6-36.5c-9.9,3.9-19.9,7.9-29.8,11.8&#10;&#9;&#9;&#9;c12-9.4,23.9-18.8,35.9-28.2c-12.5-3.2-26.7,1.4-35,11.3c17.6-17.2,35.3-34.5,52.9-51.7c14.5,16.1,31.2,30.2,45.7,46.2&#10;&#9;&#9;&#9;c-9.9-4-19.7-8.1-29.6-12.1c6,8.7,11.9,17.3,17.9,26c-4.9-3-9.8-5.9-14.8-8.9c8.7,11.1,17.5,22.2,26.2,33.2&#10;&#9;&#9;&#9;c-8.7-3.7-17.3-7.3-26-11c14,14.1,28,28.2,42.1,42.3c-7.9-4.7-15.9-9.5-23.8-14.2c9.1,12.7,18.2,25.4,27.3,38&#10;&#9;&#9;&#9;c-9.6-5.9-19.2-11.7-28.8-17.6c18.7,21.8,37.3,43.6,56,65.4c-13.6-8.1-27.3-16.2-40.9-24.3c17.4,20.6,34.7,41.2,52.1,61.8&#10;&#9;&#9;&#9;c-13.6-7.4-27.3-14.8-40.9-22.2c11.1,13.4,22.3,26.8,33.4,40.2c-6.9-5.7-13.9-11.3-20.8-17c8.2,15.6,16.3,31.2,24.5,46.7&#10;&#9;&#9;&#9;c-9.6-7.5-19.2-15-28.8-22.5c7.5,17.8,15.1,35.7,22.6,53.5c-7.2-7.5-14.5-15-21.7-22.5c5.3,17,10.6,34,15.8,51&#10;&#9;&#9;&#9;c-3.9-6.3-7.7-12.7-11.6-19c0.7,15,1.3,30.1,2,45.1c-2.2-6.3-4.4-12.5-6.5-18.8c-4.1,14.7-8.3,29.4-12.4,44.2&#10;&#9;&#9;&#9;c-1.6-8.8-3.2-17.7-4.8-26.5c-4.3,6.4-8.6,12.9-12.9,19.3c-14.6-0.9-29.2-1-43.9-1.1C432.2,1126.7,394,1121,358.3,1120.7z" transform="matrix(1, 0, 0, 1, 1.7220544318535076, 303.0815685849779)" style="fill: rgb(157, 156, 153);"/><path fill="#4A7C65" d="M563.4,1128.9c-0.5,7.4-1,14.9-1.5,22.3c-1.8-23-3.6-46-5.4-68.9c-5.1,3.3-10.3,6.6-15.4,9.9&#10;&#9;&#9;&#9;c6.3-15.4,12.6-30.8,18.9-46.3c-6.4,4-12.9,8-19.3,12c5.2-12.9,10.5-25.7,15.7-38.6c-5.4,3.7-10.9,7.5-16.3,11.2&#10;&#9;&#9;&#9;c8.1-15.5,16.2-31,24.3-46.5c-4.8,2.6-9.6,5.1-14.5,7.7c7.4-13.2,14.8-26.4,22.2-39.7c-4.7,1.2-9.4,2.4-14.1,3.6&#10;&#9;&#9;&#9;c10-14.7,20-29.4,30-44.2c-9.7,4.3-19.4,8.7-29.1,13c12.1-17.8,24.3-35.6,36.4-53.4c-4.8,2.1-9.7,4.3-14.5,6.4&#10;&#9;&#9;&#9;c7-11,14.1-21.9,21.1-32.9c-7.3,2.6-14.7,5.2-22,7.8c9.2-11.2,18.4-22.4,27.5-33.6c-9,2.3-18.1,4.7-27.1,7&#10;&#9;&#9;&#9;c10.6-9.3,21.1-18.6,31.7-27.9c-9,2.4-18.1,4.7-27.1,7.1c14.1-16.4,28.2-32.8,42.3-49.2c-9.8,4.3-19.5,8.6-29.3,12.9&#10;&#9;&#9;&#9;c13.2-15.3,26.4-30.6,39.7-45.9c-11.4,6.3-22.9,12.7-34.3,19c12.6-13.9,25.1-27.8,37.7-41.8c-10.4,5.1-20.8,10.2-31.3,15.2&#10;&#9;&#9;&#9;c8.8-11.1,17.7-22.2,26.5-33.2c-8.1,4.1-16.1,8.2-24.2,12.3c9.2-11.8,18.4-23.6,27.7-35.4c-6.9,4.2-13.8,8.3-20.6,12.5&#10;&#9;&#9;&#9;c9.8-12.7,19.6-25.5,29.4-38.2c-8.5,4.9-16.9,9.8-25.4,14.7c19.3-15,34-35.6,42-58.6c9.6,15.3,18.5,33.9,28.1,49.3&#10;&#9;&#9;&#9;c-6.6-3.6-13.1-7.3-19.7-10.9c6.8,9.4,13.6,18.7,20.3,28.1c-6.3-1.8-12.6-3.6-18.9-5.5c11.1,10.3,22.1,20.6,33.2,30.9&#10;&#9;&#9;&#9;c-7.4-0.7-14.7-1.5-22.1-2.2c9.6,10.7,19.2,21.4,28.7,32.1c-9-0.9-18.1-1.8-27.1-2.6c7.9,9.4,15.8,18.9,23.7,28.3&#10;&#9;&#9;&#9;c-5.6,0-11.2-0.1-16.8-0.1c5.2,8.6,10.3,17.3,15.5,25.9c-5-0.9-9.9-1.9-14.9-2.8c7.4,12.8,14.8,25.7,22.1,38.5&#10;&#9;&#9;&#9;c-6.4-5.4-12.9-10.8-19.3-16.2c11.5,15.1,22.9,30.2,34.4,45.3c-7.4-4-14.7-8.1-22.1-12.1c11.3,11.6,22.6,23.1,33.9,34.7&#10;&#9;&#9;&#9;c-5.3,0.5-10.7,1.1-16,1.6c8.9,9.8,17.8,19.7,26.7,29.5c-10.5-4.4-20.9-8.8-31.4-13.2c10.8,13.3,21.6,26.7,32.5,40&#10;&#9;&#9;&#9;c-6.6-3.7-13.2-7.4-19.8-11.1c8.6,12.1,17.1,24.3,25.7,36.4c-8.8-4.1-17.7-8.1-26.5-12.2c9.3,13.5,18.5,27.1,27.8,40.6&#10;&#9;&#9;&#9;c-7.5-3.7-15.1-7.3-22.6-11c5.9,12.7,11.7,25.4,17.6,38c-8.3-4.2-16.6-8.4-24.8-12.6c7.9,14,15.7,28,23.6,42&#10;&#9;&#9;&#9;c-5.1-3.1-10.2-6.3-15.3-9.4c4.8,15.1,9.7,30.2,14.5,45.3c-3.7-4.8-7.4-9.6-11-14.4c2.1,12.3,4.1,24.6,6.2,36.9&#10;&#9;&#9;&#9;c-3.7-3.7-7.3-7.4-11-11.1c-0.3,10.6-0.6,21.2-0.9,31.9c-4.4-4.8-8.9-9.6-13.3-14.4c-0.3,10.7-0.7,21.4-1,32&#10;&#9;&#9;&#9;c-1.8-4.1-3.6-8.1-5.4-12.2c-3.4,10.7-6.7,21.4-10.1,32.1c-1.3-2.7-2.7-5.4-4-8.2C664.4,1150.2,605,1151.9,563.4,1128.9z" transform="matrix(1, 0, 0, 1, 1.7220544318535076, 303.0815685849779)" style="fill: rgb(157, 156, 153);"/><path fill="#4A7C65" d="M39,1124.5c-0.6,8.9-1.2,17.8-1.8,26.7c-2.2-27.5-4.3-54.9-6.5-82.4c-6.1,3.9-12.3,7.9-18.4,11.8&#10;&#9;&#9;&#9;c7.5-18.4,15.1-36.8,22.6-55.3c-7.7,4.8-15.4,9.5-23.1,14.3c6.3-15.4,12.5-30.8,18.8-46.1c-6.5,4.5-13,8.9-19.4,13.4&#10;&#9;&#9;&#9;c9.7-18.5,19.4-37,29.1-55.5c-5.8,3.1-11.5,6.1-17.3,9.2c8.8-15.8,17.7-31.6,26.5-47.4c-5.6,1.4-11.2,2.8-16.8,4.2&#10;&#9;&#9;&#9;c12-17.6,23.9-35.2,35.9-52.8C57,869.8,45.4,875,33.8,880.2c14.5-21.3,29-42.5,43.5-63.8c-5.8,2.6-11.6,5.1-17.4,7.7&#10;&#9;&#9;&#9;c8.4-13.1,16.8-26.2,25.2-39.3c-8.8,3.1-17.5,6.2-26.3,9.3c11-13.4,21.9-26.8,32.9-40.2c-10.8,2.8-21.6,5.6-32.4,8.4&#10;&#9;&#9;&#9;c12.6-11.1,25.2-22.3,37.9-33.4c-10.8,2.8-21.6,5.6-32.4,8.4c16.8-19.6,33.7-39.2,50.5-58.8c-11.7,5.1-23.3,10.2-35,15.4&#10;&#9;&#9;&#9;c15.8-18.3,31.6-36.5,47.4-54.8c-13.7,7.6-27.3,15.2-41,22.7c15-16.6,30-33.3,45-49.9c-12.4,6.1-24.9,12.1-37.3,18.2&#10;&#9;&#9;&#9;c10.6-13.2,21.1-26.5,31.7-39.7c-9.6,4.9-19.3,9.8-28.9,14.7c11-14.1,22-28.2,33-42.3c-8.2,5-16.4,9.9-24.7,14.9&#10;&#9;&#9;&#9;c11.7-15.2,23.4-30.4,35.1-45.7c-10.1,5.9-20.2,11.7-30.3,17.6c23-17.9,40.7-42.5,50.2-70.1c11.5,18.3,22.1,40.5,33.6,58.8&#10;&#9;&#9;&#9;c-7.9-4.3-15.7-8.7-23.6-13c8.1,11.2,16.2,22.4,24.3,33.5c-7.5-2.2-15-4.3-22.5-6.5c13.2,12.3,26.5,24.6,39.7,37&#10;&#9;&#9;&#9;c-8.8-0.9-17.6-1.8-26.4-2.7c11.4,12.8,22.9,25.6,34.3,38.3c-10.8-1.1-21.6-2.1-32.4-3.2c9.5,11.3,18.9,22.6,28.4,33.8&#10;&#9;&#9;&#9;c-6.7,0-13.4-0.1-20.1-0.1c6.2,10.3,12.3,20.6,18.5,30.9c-5.9-1.1-11.8-2.2-17.8-3.3c8.8,15.3,17.6,30.7,26.5,46&#10;&#9;&#9;&#9;c-7.7-6.5-15.4-12.9-23.1-19.4c13.7,18,27.4,36.1,41.1,54.1c-8.8-4.8-17.6-9.7-26.4-14.5c13.5,13.8,27,27.7,40.5,41.5&#10;&#9;&#9;&#9;c-6.4,0.7-12.8,1.3-19.1,2c10.6,11.7,21.3,23.5,31.9,35.2c-12.5-5.3-25-10.5-37.5-15.8c12.9,15.9,25.9,31.8,38.8,47.8&#10;&#9;&#9;&#9;c-7.9-4.4-15.8-8.8-23.7-13.3c10.2,14.5,20.5,29,30.7,43.5c-10.6-4.8-21.1-9.7-31.7-14.5c11.1,16.2,22.1,32.4,33.2,48.5&#10;&#9;&#9;&#9;c-9-4.4-18-8.8-27-13.2c7,15.1,14,30.3,21,45.4c-9.9-5-19.8-10-29.7-15c9.4,16.7,18.8,33.5,28.1,50.2c-6.1-3.8-12.2-7.5-18.3-11.3&#10;&#9;&#9;&#9;c5.8,18,11.6,36,17.3,54.1c-4.4-5.7-8.8-11.5-13.2-17.2c2.5,14.7,4.9,29.4,7.4,44.1c-4.4-4.4-8.8-8.9-13.2-13.3&#10;&#9;&#9;&#9;c-0.3,12.7-0.7,25.4-1,38.1c-5.3-5.7-10.6-11.5-15.9-17.2c-0.4,12.8-0.8,25.5-1.2,38.3c-2.2-4.9-4.3-9.7-6.5-14.6&#10;&#9;&#9;&#9;c-4,12.8-8,25.6-12.1,38.4c-1.6-3.3-3.2-6.5-4.8-9.8C159.6,1150,88.7,1152,39,1124.5z" transform="matrix(1, 0, 0, 1, 1.7220544318535076, 303.0815685849779)" style="fill: rgb(157, 156, 153);"/><path fill="#4A7C65" d="M-88.3,1128.9c-0.5,7.4-1,14.9-1.5,22.3c-1.8-23-3.6-46-5.4-68.9c-5.1,3.3-10.3,6.6-15.4,9.9&#10;&#9;&#9;&#9;c6.3-15.4,12.6-30.8,18.9-46.3c-6.4,4-12.9,8-19.3,12c5.2-12.9,10.5-25.7,15.7-38.6c-5.4,3.7-10.9,7.5-16.3,11.2&#10;&#9;&#9;&#9;c8.1-15.5,16.2-31,24.3-46.5c-4.8,2.6-9.6,5.1-14.5,7.7c7.4-13.2,14.8-26.4,22.2-39.7c-4.7,1.2-9.4,2.4-14.1,3.6&#10;&#9;&#9;&#9;c10-14.7,20-29.4,30-44.2c-9.7,4.3-19.4,8.7-29.1,13c12.1-17.8,24.3-35.6,36.4-53.4c-4.8,2.1-9.7,4.3-14.5,6.4&#10;&#9;&#9;&#9;c7-11,14.1-21.9,21.1-32.9c-7.3,2.6-14.7,5.2-22,7.8c9.2-11.2,18.4-22.4,27.5-33.6c-9,2.3-18.1,4.7-27.1,7&#10;&#9;&#9;&#9;c10.6-9.3,21.1-18.6,31.7-27.9c-9,2.4-18.1,4.7-27.1,7.1c14.1-16.4,28.2-32.8,42.3-49.2c-9.8,4.3-19.5,8.6-29.3,12.9&#10;&#9;&#9;&#9;c13.2-15.3,26.4-30.6,39.7-45.9c-11.4,6.3-22.9,12.7-34.3,19c12.6-13.9,25.1-27.8,37.7-41.8c-10.4,5.1-20.8,10.2-31.3,15.2&#10;&#9;&#9;&#9;c8.8-11.1,17.7-22.2,26.5-33.2c-8.1,4.1-16.1,8.2-24.2,12.3c9.2-11.8,18.4-23.6,27.7-35.4c-6.9,4.2-13.8,8.3-20.6,12.5&#10;&#9;&#9;&#9;c9.8-12.7,19.6-25.5,29.4-38.2c-8.5,4.9-16.9,9.8-25.4,14.7c19.3-15,34-35.6,42-58.6c9.6,15.3,18.5,33.9,28.1,49.3&#10;&#9;&#9;&#9;c-6.6-3.6-13.1-7.3-19.7-10.9c6.8,9.4,13.6,18.7,20.3,28.1c-6.3-1.8-12.6-3.6-18.9-5.5c11.1,10.3,22.1,20.6,33.2,30.9&#10;&#9;&#9;&#9;c-7.4-0.7-14.7-1.5-22.1-2.2c9.6,10.7,19.2,21.4,28.7,32.1c-9-0.9-18.1-1.8-27.1-2.6c7.9,9.4,15.8,18.9,23.7,28.3&#10;&#9;&#9;&#9;c-5.6,0-11.2-0.1-16.8-0.1c5.2,8.6,10.3,17.3,15.5,25.9c-5-0.9-9.9-1.9-14.9-2.8c7.4,12.8,14.8,25.7,22.1,38.5&#10;&#9;&#9;&#9;c-6.4-5.4-12.9-10.8-19.3-16.2c11.5,15.1,22.9,30.2,34.4,45.3c-7.4-4-14.7-8.1-22.1-12.1C70,826.4,81.3,838,92.6,849.6&#10;&#9;&#9;&#9;c-5.3,0.5-10.7,1.1-16,1.6c8.9,9.8,17.8,19.7,26.7,29.5c-10.5-4.4-20.9-8.8-31.4-13.2c10.8,13.3,21.6,26.7,32.5,40&#10;&#9;&#9;&#9;c-6.6-3.7-13.2-7.4-19.8-11.1c8.6,12.1,17.1,24.3,25.7,36.4c-8.8-4.1-17.7-8.1-26.5-12.2c9.3,13.5,18.5,27.1,27.8,40.6&#10;&#9;&#9;&#9;c-7.5-3.7-15.1-7.3-22.6-11c5.9,12.7,11.7,25.4,17.6,38c-8.3-4.2-16.6-8.4-24.8-12.6c7.9,14,15.7,28,23.6,42&#10;&#9;&#9;&#9;c-5.1-3.1-10.2-6.3-15.3-9.4c4.8,15.1,9.7,30.2,14.5,45.3c-3.7-4.8-7.4-9.6-11-14.4c2.1,12.3,4.1,24.6,6.2,36.9&#10;&#9;&#9;&#9;c-3.7-3.7-7.3-7.4-11-11.1c-0.3,10.6-0.6,21.2-0.9,31.9c-4.4-4.8-8.9-9.6-13.3-14.4c-0.3,10.7-0.7,21.4-1,32&#10;&#9;&#9;&#9;c-1.8-4.1-3.6-8.1-5.4-12.2c-3.4,10.7-6.7,21.4-10.1,32.1c-1.3-2.7-2.7-5.4-4-8.2C12.7,1150.2-46.6,1151.9-88.3,1128.9z" transform="matrix(1, 0, 0, 1, 1.7220544318535076, 303.0815685849779)" style="fill: rgb(157, 156, 153); stroke: rgb(0, 0, 0); stroke-width: 0;"/><path fill="#4A7C65" d="M649,1117.4c0.1,3.6,0.2,7.2,0.2,10.8c-8.8-31.3-7.2-65.3,4.4-95.6c-7.5,7.3-14.9,14.6-22.4,21.9&#10;&#9;&#9;&#9;c7.2-19.4,14.4-38.9,21.5-58.3c-8.1,7.8-16.3,15.6-24.4,23.3c8.2-15.5,16.4-31.1,24.6-46.6c-6.2,4.1-12.3,8.2-18.5,12.4&#10;&#9;&#9;&#9;c14.6-21.1,29.3-42.2,43.9-63.2c-9.1,5.3-18.2,10.7-27.2,16c16-20.7,31.9-41.4,47.9-62.1c-9.4,3.5-18.8,7.1-28.3,10.6&#10;&#9;&#9;&#9;c17.1-15.4,34.2-30.8,51.4-46.2c-6.1,2.6-12.3,5.3-18.4,7.9c16-17.1,32-34.3,48-51.4c-12.5,8.2-25,16.3-37.5,24.5&#10;&#9;&#9;&#9;c14.5-16.5,28.9-33.1,43.4-49.6c-11.9,5.7-23.8,11.4-35.7,17.1c12.4-15.6,24.7-31.3,37.1-46.9c-10.8,4.2-21.7,8.3-32.5,12.5&#10;&#9;&#9;&#9;c14.4-14.6,28.8-29.3,43.2-43.9c-15.8,7-31.5,14.1-47.3,21.1c25.6-24.4,51.1-48.9,76.7-73.3c27.2,21.7,57.3,47.8,84.5,69.6&#10;&#9;&#9;&#9;c-16.1-5.1-32.2-10.3-48.3-15.4c11.3,11,22.7,22,34,32.9c-10.5-4.5-21-9-31.4-13.5c13.6,13.2,27.3,26.5,40.9,39.7&#10;&#9;&#9;&#9;c-12.5-4-25-8-37.5-12.1c17,14.1,34,28.1,51.1,42.2c-13.5-1.5-27-3-40.5-4.5c17.8,14.4,35.6,28.8,53.3,43.2&#10;&#9;&#9;&#9;c-15.8-2.1-31.7-4.2-47.5-6.3c17.8,10.7,35.7,21.5,53.5,32.2c-15.7-2.3-31.4-4.6-47.1-6.8c18.4,12.5,36.8,25,55.1,37.5&#10;&#9;&#9;&#9;c-7.4-1.3-14.8-2.6-22.3-4c14.1,15.2,28.1,30.4,42.2,45.6c-13.2-5.9-26.4-11.9-39.6-17.8c17.1,21.7,34.2,43.5,51.3,65.2&#10;&#9;&#9;&#9;c-11.5-6-23.1-12.1-34.6-18.1c14.6,25.3,29.2,50.5,43.8,75.8c-2.2-5.1-9.8-6.9-14.1-3.2c1.8,30.5,1.3,66.3-23.2,84.4&#10;&#9;&#9;&#9;c-16.7,12.3-39.2,11.9-59.9,11.1c-38.2-1.6-76.4-3.2-114.6-4.9C714.8,1129.4,682.1,1120.5,649,1117.4z" transform="matrix(1, 0, 0, 1, 1.7220544318535076, 303.0815685849779)" style="fill: rgb(157, 156, 153);"/><path fill="#4A7C65" d="M255.9,1119.9c-0.6,2.7-1.2,5.4-1.7,8.2c-3.1-18.8-6.2-37.7-9.3-56.5c-2.5,4.2-4.9,8.4-7.4,12.6&#10;&#9;&#9;&#9;c1.6-15.7,3.3-31.4,4.9-47.1c-5.4,8.2-10.8,16.3-16.2,24.5c5.3-21,10.6-42,15.8-63c-5.8,9.3-11.5,18.7-17.3,28&#10;&#9;&#9;&#9;c7.3-17.8,14.5-35.5,21.8-53.3c-7.2,4.5-14.4,9-21.6,13.4c8.5-15,16.9-29.9,25.4-44.9c-4.9,3-9.9,5.9-14.8,8.9&#10;&#9;&#9;&#9;c7.7-13,15.5-26.1,23.2-39.1c-10.5,7.3-21,14.5-31.5,21.8c11.7-14.4,23.5-28.9,35.2-43.3c-6.3,4.1-12.7,8.1-19,12.2&#10;&#9;&#9;&#9;c14.2-17.9,28.3-35.7,42.5-53.6c-11.6,6.5-23.2,13.1-34.8,19.6c10.6-14.5,21.2-29,31.7-43.5c-8.8,5.1-17.7,10.2-26.5,15.3&#10;&#9;&#9;&#9;c15.7-16.5,31.3-32.9,47-49.4c-8.4,2.7-16.8,5.5-25.3,8.2c11.7-12.2,23.4-24.5,35.1-36.7c-9.4,5.2-18.8,10.4-28.1,15.6&#10;&#9;&#9;&#9;c11.5-14.6,23-29.1,34.4-43.7c-13,7.2-26,14.5-39,21.7c12-15.6,24.1-31.1,36.1-46.7c-8.8,7-17.5,14-26.3,21&#10;&#9;&#9;&#9;c12.3-14.2,24.6-28.5,36.9-42.7c-11.5,8.1-23.1,16.2-34.6,24.2c12.6-14,25.2-28,37.8-41.9c-11.5,8.1-23,16.3-34.5,24.4&#10;&#9;&#9;&#9;c15.4-18,30.9-36,46.3-54c-10.3,6.2-20.6,12.5-30.9,18.7c11.9-14,23.8-27.9,35.6-41.9c-10,6.5-20,13.1-30.1,19.6&#10;&#9;&#9;&#9;c17.6-21.2,35.2-42.5,52.8-63.7c17.9,17.2,35.5,36.5,53.4,53.8c-11.3-6-22.5-12-33.8-18.1c6.5,9.1,13,18.2,19.4,27.3&#10;&#9;&#9;&#9;c-8.2-4.4-16.5-8.8-24.7-13.1c8.1,13.5,16.2,26.9,24.2,40.4c-8.9-5.7-17.8-11.5-26.6-17.2c9.6,14.2,19.2,28.4,28.9,42.7&#10;&#9;&#9;&#9;c-6.9-4.2-13.9-8.4-20.8-12.7c12.6,15.5,25.2,31.1,37.9,46.6c-10.4-4.6-20.7-9.2-31.1-13.8c12.8,15.3,25.6,30.5,38.4,45.8&#10;&#9;&#9;&#9;c-9.4-5.7-18.7-11.4-28.1-17.1c13.4,17.9,26.7,35.7,40.1,53.6c-15.7-8.9-31.4-17.9-47.1-26.8c16,18,32,36,48,54&#10;&#9;&#9;&#9;c-8.3-3-16.6-6-24.9-9.1c18.5,15.3,32.6,35.9,40.4,58.6c-10.1-6.5-20.1-13-30.2-19.5c11.9,19,23.8,37.9,35.8,56.9&#10;&#9;&#9;&#9;c-8.8-6.4-17.7-12.7-26.5-19.1c8.2,20.9,16.4,41.9,24.6,62.8c-9-8-18-16-27.1-24c6.9,20,13.8,40,20.7,60&#10;&#9;&#9;&#9;c-6.5-7.3-13.1-14.6-19.6-21.9c4.8,20,9.5,39.9,14.3,59.9c-4.8-7.2-9.6-14.5-14.4-21.7c2.1,16.1,4.1,32.3,6.2,48.4&#10;&#9;&#9;&#9;c-3.2-10-6.3-19.9-9.5-29.9c-0.9,18.1-1.8,36.2-2.8,54.3c-1.4-6.9-2.7-13.8-4.1-20.7c-3.2,12.8-6.4,25.5-9.6,38.3&#10;&#9;&#9;&#9;c-2.2-6.2-4.5-12.4-6.7-18.6c-6.4,13.9-12.8,27.8-19.2,41.7c-0.1-6.3-0.3-12.6-0.4-18.9c-1.9,14.7-15.1,25.9-29.3,30&#10;&#9;&#9;&#9;c-14.2,4.1-29.4,2.7-44.1,1.1C300.5,1124.6,276.9,1122,255.9,1119.9z" transform="matrix(1, 0, 0, 1, 1.7220544318535076, 303.0815685849779)" style="fill: rgb(157, 156, 153);"/><path fill="#4A7C65" d="M1095.9,1122.7c0.3,1.8,0.6,3.5,0.9,5.3c2.6-10.5,5.3-21,7.9-31.6c1.4,4.1,2.7,8.1,4.1,12.2&#10;&#9;&#9;&#9;c1.7-10.2,3.4-20.5,5.1-30.7c2.9,4.4,5.9,8.8,8.8,13.2c0-11.4,0-22.8,0-34.3c1.9,4.7,3.9,9.4,5.8,14.1&#10;&#9;&#9;&#9;c-0.6-14.3-1.2-28.6-1.8-42.9c3.4,3.2,6.7,6.3,10.1,9.5c-3.2-13.3-6.4-26.6-9.6-39.9c4.7,4.9,9.4,9.9,14.1,14.8&#10;&#9;&#9;&#9;c-5.4-16.1-10.8-32.1-16.1-48.2c5.7,4.8,11.4,9.6,17.1,14.4c-6.5-15.4-13.1-30.9-19.6-46.3c5.8,5.1,11.7,10.2,17.5,15.3&#10;&#9;&#9;&#9;c-7-13.7-13.9-27.4-20.9-41.1c6.1,3.5,12.2,7.1,18.3,10.6c-7.3-14.8-14.7-29.6-22-44.4c5.1,4.2,10.3,8.3,15.4,12.5&#10;&#9;&#9;&#9;c-9-15-18-29.9-27-44.9c8.5,5.8,17.1,11.6,25.6,17.4c-9.5-14.7-19.1-29.3-28.6-44c6.3,5,12.7,10,19,15&#10;&#9;&#9;&#9;c-8.8-12.3-17.6-24.5-26.4-36.8c7.5,3.9,15,7.7,22.5,11.6c-7.6-13.2-15.1-26.4-22.7-39.6c6.5,4.8,13.1,9.7,19.6,14.5&#10;&#9;&#9;&#9;c-7.7-13.3-15.3-26.7-23-40c5.8,4.4,11.6,8.8,17.4,13.2c-7.3-11-14.7-22.1-22-33.1c7.5,3.5,15.1,7.1,22.6,10.6&#10;&#9;&#9;&#9;c-7.4-11.3-14.9-22.6-22.3-33.9c6,2.8,12.1,5.6,18.1,8.4c-8.8-11.4-17.5-22.8-26.3-34.2c6.3,3.8,12.7,7.7,19,11.5&#10;&#9;&#9;&#9;c-6.9-11.6-13.8-23.2-20.6-34.7c3.3,3.4,6.7,6.8,10,10.3c-2.9-6.5-5.8-12.9-8.7-19.4c4,3.9,8,7.7,12,11.6&#10;&#9;&#9;&#9;c-6.5-10.5-14.4-21.4-20.9-31.8c-9.1,14.1-18.2,28.2-27.2,42.3c5.4-4.2,10.8-8.4,16.2-12.6c-7,9.6-14,19.3-21,28.9&#10;&#9;&#9;&#9;c5.2-2.2,10.3-4.4,15.5-6.6c-7.7,9.9-15.3,19.7-23,29.6c6-3.9,12.1-7.8,18.1-11.6c-8.2,10.2-16.4,20.5-24.5,30.7&#10;&#9;&#9;&#9;c7.6-3.5,15.2-7,22.8-10.5c-8.2,9.9-16.4,19.9-24.5,29.8c6.7-3.2,13.4-6.4,20.2-9.6c-8.5,10.8-16.9,21.6-25.4,32.4&#10;&#9;&#9;&#9;c7.3-3.5,14.7-7,22-10.5c-8.2,11.1-16.4,22.2-24.6,33.3c5.8-3.8,11.7-7.6,17.5-11.4c-9.1,14.6-18.2,29.1-27.2,43.7&#10;&#9;&#9;&#9;c9.1-4.7,18.2-9.4,27.2-14.2c-7.7,12.8-15.5,25.5-23.2,38.3c6.3-3.4,12.5-6.7,18.8-10.1c-9.3,14.9-18.7,29.8-28,44.7&#10;&#9;&#9;&#9;c4.9-2.1,9.9-4.1,14.8-6.2c-8,12.3-15.9,24.6-23.9,37c7.5-3.4,14.9-6.8,22.4-10.2c-8.1,12-16.1,24-24.2,36c6-2.7,12-5.5,18-8.2&#10;&#9;&#9;&#9;c-10.9,17.2-21.8,34.4-32.8,51.6c8.1-5.7,16.1-11.4,24.2-17.2c-7.9,15.4-15.9,30.8-23.8,46.3c6.2-6.8,12.4-13.6,18.6-20.4&#10;&#9;&#9;&#9;c-7,19-14,38-21,56.9c5.3-5.8,10.6-11.6,16-17.4c-3.2,14.4-6.4,28.7-9.7,43.1c3.2-3.5,6.4-6.9,9.6-10.4&#10;&#9;&#9;&#9;c-2.2,16.3-4.3,32.6-6.5,48.9c2.5-6.1,5-12.3,7.5-18.4c0.9,11.1,1.7,22.3,2.6,33.4c0.6-1.8,1.1-3.5,1.7-5.3&#10;&#9;&#9;&#9;C1024.4,1120.7,1061.9,1125,1095.9,1122.7z" transform="matrix(1, 0, 0, 1, 1.7220544318535076, 303.0815685849779)" style="fill: rgb(157, 156, 153);"/>
</svg>